<mxfile host="app.diagrams.net" modified="2021-01-14T05:02:38.175Z" agent="5.0 (Windows)" etag="11QtphS4NqhXKdvlGcyf" version="14.2.2" type="github">
  <diagram id="Td_QmKfXjvQUQw2AC1tz" name="Page-1">
    <mxGraphModel dx="782" dy="707" grid="1" gridSize="10" guides="1" tooltips="1" connect="1" arrows="1" fold="1" page="1" pageScale="1" pageWidth="827" pageHeight="1169" math="0" shadow="0">
      <root>
        <mxCell id="0" />
        <mxCell id="1" parent="0" />
        <mxCell id="sKwibKbaVwOJWMvW6d0F-4" style="edgeStyle=orthogonalEdgeStyle;rounded=0;orthogonalLoop=1;jettySize=auto;html=1;entryX=0.5;entryY=0;entryDx=0;entryDy=0;entryPerimeter=0;" edge="1" parent="1" source="sKwibKbaVwOJWMvW6d0F-1" target="sKwibKbaVwOJWMvW6d0F-3">
          <mxGeometry relative="1" as="geometry" />
        </mxCell>
        <mxCell id="sKwibKbaVwOJWMvW6d0F-1" value="开始" style="rounded=1;whiteSpace=wrap;html=1;strokeWidth=2;" vertex="1" parent="1">
          <mxGeometry x="340" y="130" width="110" height="30" as="geometry" />
        </mxCell>
        <mxCell id="sKwibKbaVwOJWMvW6d0F-5" style="edgeStyle=orthogonalEdgeStyle;rounded=0;orthogonalLoop=1;jettySize=auto;html=1;entryX=0.5;entryY=0;entryDx=0;entryDy=0;" edge="1" parent="1" source="sKwibKbaVwOJWMvW6d0F-3" target="sKwibKbaVwOJWMvW6d0F-6">
          <mxGeometry relative="1" as="geometry">
            <mxPoint x="395" y="290" as="targetPoint" />
          </mxGeometry>
        </mxCell>
        <mxCell id="sKwibKbaVwOJWMvW6d0F-13" style="edgeStyle=orthogonalEdgeStyle;rounded=0;orthogonalLoop=1;jettySize=auto;html=1;entryX=1;entryY=0.5;entryDx=0;entryDy=0;" edge="1" parent="1" source="sKwibKbaVwOJWMvW6d0F-3" target="sKwibKbaVwOJWMvW6d0F-11">
          <mxGeometry relative="1" as="geometry">
            <Array as="points">
              <mxPoint x="510" y="235" />
              <mxPoint x="510" y="545" />
            </Array>
          </mxGeometry>
        </mxCell>
        <mxCell id="sKwibKbaVwOJWMvW6d0F-3" value="参数校验" style="strokeWidth=2;html=1;shape=mxgraph.flowchart.decision;whiteSpace=wrap;" vertex="1" parent="1">
          <mxGeometry x="347.5" y="200" width="95" height="70" as="geometry" />
        </mxCell>
        <mxCell id="sKwibKbaVwOJWMvW6d0F-7" style="edgeStyle=orthogonalEdgeStyle;rounded=0;orthogonalLoop=1;jettySize=auto;html=1;entryX=0.5;entryY=0;entryDx=0;entryDy=0;" edge="1" parent="1" source="sKwibKbaVwOJWMvW6d0F-6" target="sKwibKbaVwOJWMvW6d0F-8">
          <mxGeometry relative="1" as="geometry">
            <mxPoint x="395" y="380" as="targetPoint" />
          </mxGeometry>
        </mxCell>
        <mxCell id="sKwibKbaVwOJWMvW6d0F-6" value="下载模板" style="strokeWidth=2;html=1;shape=mxgraph.flowchart.document2;whiteSpace=wrap;size=0.25;" vertex="1" parent="1">
          <mxGeometry x="345" y="300" width="100" height="40" as="geometry" />
        </mxCell>
        <mxCell id="sKwibKbaVwOJWMvW6d0F-10" style="edgeStyle=orthogonalEdgeStyle;rounded=0;orthogonalLoop=1;jettySize=auto;html=1;exitX=0.5;exitY=1;exitDx=0;exitDy=0;entryX=0.5;entryY=0;entryDx=0;entryDy=0;" edge="1" parent="1" source="sKwibKbaVwOJWMvW6d0F-8" target="sKwibKbaVwOJWMvW6d0F-9">
          <mxGeometry relative="1" as="geometry" />
        </mxCell>
        <mxCell id="sKwibKbaVwOJWMvW6d0F-8" value="渲染模板" style="strokeWidth=2;html=1;shape=mxgraph.flowchart.document2;whiteSpace=wrap;size=0.25;" vertex="1" parent="1">
          <mxGeometry x="345" y="380" width="100" height="40" as="geometry" />
        </mxCell>
        <mxCell id="sKwibKbaVwOJWMvW6d0F-12" style="edgeStyle=orthogonalEdgeStyle;rounded=0;orthogonalLoop=1;jettySize=auto;html=1;exitX=0.5;exitY=1;exitDx=0;exitDy=0;entryX=0.5;entryY=0;entryDx=0;entryDy=0;" edge="1" parent="1" source="sKwibKbaVwOJWMvW6d0F-9" target="sKwibKbaVwOJWMvW6d0F-11">
          <mxGeometry relative="1" as="geometry" />
        </mxCell>
        <mxCell id="sKwibKbaVwOJWMvW6d0F-9" value="上传文件" style="strokeWidth=2;html=1;shape=mxgraph.flowchart.document2;whiteSpace=wrap;size=0.25;" vertex="1" parent="1">
          <mxGeometry x="345" y="460" width="100" height="40" as="geometry" />
        </mxCell>
        <mxCell id="sKwibKbaVwOJWMvW6d0F-11" value="返回结果" style="strokeWidth=2;html=1;shape=mxgraph.flowchart.document2;whiteSpace=wrap;size=0.25;gradientDirection=north;rounded=1;" vertex="1" parent="1">
          <mxGeometry x="345" y="530" width="100" height="30" as="geometry" />
        </mxCell>
      </root>
    </mxGraphModel>
  </diagram>
</mxfile>
